<?xml version="1.0" encoding="utf-8"?>
<!-- Generator: Adobe Illustrator 27.5.0, SVG Export Plug-In . SVG Version: 6.00 Build 0)  -->
<svg version="1.1" id="Layer_1" xmlns="http://www.w3.org/2000/svg" xmlns:xlink="http://www.w3.org/1999/xlink" x="0px" y="0px"
	 viewBox="0 0 1000 1000" style="enable-background:new 0 0 1000 1000;" xml:space="preserve">
<style type="text/css">
	.st0{fill:#fff;}
</style>
<g>
	<path class="st0" d="M820.5,265.11l0,488.6L694.66,627.9c-4.16-4.16-6.49-9.8-6.48-15.68l0.29-135.73l-72.61,72.61l-0.46-0.46
		l-93.76,93.76l0.46,0.46l-14.29,14.3c-4.32,4.32-11.32,4.32-15.63,0L312.12,477.09l0,132.66c0,5.86-2.33,11.49-6.48,15.63
		L179.5,751.5l0-486.51c0-10.33,8.38-18.71,18.71-18.71l160.33,0l-46.42,43.26v0.02L500,477.42l188.9-188.87v-0.02l-44.12-41.13
		l156.9-0.99C812.05,246.34,820.5,254.73,820.5,265.11z"/>
</g>
</svg>
